<svg xmlns="http://www.w3.org/2000/svg" viewBox="0 0 120 80" fill="none" aria-hidden="true">
  <path d="M22 48c-8-14 2-32 18-34 10-1 16 6 28 4 14-2 26 8 28 22 2 16-10 28-26 30-12 1-18-6-28-4-14 2-26-6-20-18z" fill="#b45309" fill-opacity=".08"/>
  <path d="M30 44c-5-9 2-20 12-21 7-1 11 4 19 3 9-1 17 5 18 14 1 10-7 18-17 19-8 1-12-4-19-3-9 1-17-4-13-12z" stroke="#b45309" stroke-opacity=".35" stroke-width="1.25"/>
  <circle cx="86" cy="22" r="3" fill="#b45309" fill-opacity=".4"/>
  <circle cx="28" cy="58" r="2" fill="#1a1714" fill-opacity=".2"/>
</svg>
